# xmcd
#
# Track frame offsets: 
#        150
#        23193
#        41556
#        64596
#        82072
#        94034
#        121640
#        134194
#        153929
#        180640
#        198976
#        215453
#        249104
#
# Disc length: 3590 seconds
#
# Revision: 0
# Processed by: cddbd v1.5.2PL0 Copyright (c) Steve Scherf et al.
# Submitted via: ExactAudioCopyFreeDBPlugin 1.0
#
DISCID=aa0e040d
DTITLE=THE DEEP DARK WOODS - The Place I Left Behind
DYEAR=2012
DGENRE=Alternative
TTITLE0=West Side Street
TTITLE1=The place I left behind
TTITLE2=Mary's gone
TTITLE3=Virginia
TTITLE4=Sugar mama
TTITLE5=The banks of the Leopold Canal
TTITLE6=Big city lights
TTITLE7=Back alley blues
TTITLE8=I just can't lose
TTITLE9=Never prove false
TTITLE10=Dear John
TTITLE11=The ballad of Frank Dupree
TTITLE12=Oh, what a life
EXTD=
EXTT0=
EXTT1=
EXTT2=
EXTT3=
EXTT4=
EXTT5=
EXTT6=
EXTT7=
EXTT8=
EXTT9=
EXTT10=
EXTT11=
EXTT12=
PLAYORDER=
